<svg version="1.2" baseProfile="tiny-ps" xmlns="http://www.w3.org/2000/svg" viewBox="0 0 1112 1038" width="1112" height="1038">
	<title>sdfsdsdf</title>
	<style>
		tspan { white-space:pre }
		.shp0 { fill: #191919 } 
		.shp1 { fill: #262626 } 
	</style>
	<g id="balls">
		<path id="Ellipse 1" class="shp0" d="M189.48 564.91C84.83 564.91 0 480.09 0 375.45C0 270.82 84.83 186 189.48 186C294.12 186 378.95 270.82 378.95 375.45C378.95 480.09 294.12 564.91 189.48 564.91Z" />
		<path id="Ellipse 1 copy" class="shp0" d="M922.52 564.91C817.88 564.91 733.05 480.09 733.05 375.45C733.05 270.82 817.88 186 922.52 186C1027.17 186 1112 270.82 1112 375.45C1112 480.09 1027.17 564.91 922.52 564.91Z" />
		<path id="Ellipse 1 copy 2" class="shp0" d="M555.55 1038C450.9 1038 366.07 953.18 366.07 848.55C366.07 743.91 450.9 659.09 555.55 659.09C660.19 659.09 745.02 743.91 745.02 848.55C745.02 953.18 660.19 1038 555.55 1038Z" />
	</g>
	<g id="lines">
		<path id="Triangle 1" class="shp1" d="M127 784L326 784L326 904L177 904C149.39 904 127 881.61 127 854L127 784ZM127 784L326 784L326 904L177 904C149.39 904 127 881.61 127 854L127 784ZM784 784L1003 784L1003 854C1003 881.61 980.61 904 953 904L784 904L784 784ZM784 784L1003 784L1003 854C1003 881.61 980.61 904 953 904L784 904L784 784ZM1003 598L1003 854C1003 881.61 980.61 904 953 904L883 904L883 598L1003 598ZM1003 598L1003 854C1003 881.61 980.61 904 953 904L883 904L883 598L1003 598ZM127 854L127 598L247 598L247 904L177 904C149.39 904 127 881.61 127 854ZM127 854L127 598L247 598L247 904L177 904C149.39 904 127 881.61 127 854ZM943 120L169 120L169 0L893 0C920.61 0 943 22.39 943 50L943 120ZM943 120L169 120L169 0L893 0C920.61 0 943 22.39 943 50L943 120ZM465 120L187 120L187 50C187 22.39 209.39 0 237 0L465 0L465 120ZM465 120L187 120L187 50C187 22.39 209.39 0 237 0L465 0L465 120ZM129 153L129 50C129 22.39 151.39 0 179 0L249 0L249 153L129 153ZM129 153L129 50C129 22.39 151.39 0 179 0L249 0L249 153L129 153ZM983 50L983 153L863 153L863 0L933 0C960.61 0 983 22.39 983 50ZM983 50L983 153L863 153L863 0L933 0C960.61 0 983 22.39 983 50ZM556 635L406 375L706 375L556 635Z" />
	</g>
</svg>