<svg xmlns="http://www.w3.org/2000/svg" width="2000" height="2000" viewBox="0 0 2000 2000">
  <metadata><?xpacket begin="﻿" id="W5M0MpCehiHzreSzNTczkc9d"?>
<x:xmpmeta xmlns:x="adobe:ns:meta/" x:xmptk="Adobe XMP Core 5.6-c142 79.160924, 2017/07/13-01:06:39        ">
   <rdf:RDF xmlns:rdf="http://www.w3.org/1999/02/22-rdf-syntax-ns#">
      <rdf:Description rdf:about=""/>
   </rdf:RDF>
</x:xmpmeta>
                                                                                                    
                                                                                                    
                                                                                                    
                                                                                                    
                                                                                                    
                                                                                                    
                                                                                                    
                                                                                                    
                                                                                                    
                                                                                                    
                                                                                                    
                                                                                                    
                                                                                                    
                                                                                                    
                                                                                                    
                                                                                                    
                                                                                                    
                                                                                                    
                                                                                                    
                                                                                                    
                           
<?xpacket end="w"?></metadata>
<defs>
    <style>
      .cls-1 {
        fill: #343a40;
        fill-rule: evenodd;
      }
    </style>
  </defs>
  <path id="Rounded_Rectangle_2" data-name="Rounded Rectangle 2" class="cls-1" d="M1000,28h0c536.82,0,972,435.179,972,972s-435.18,972-972,972h0c-536.821,0-972-435.18-972-972S463.179,28,1000,28ZM484.181,697H1518.23a69.766,69.766,0,1,1,0,139.532H484.181A69.766,69.766,0,1,1,484.181,697Zm-0.019,237.472H1518.25a69.744,69.744,0,1,1,0,139.488H484.162A69.744,69.744,0,1,1,484.162,934.472Zm-1.4,230H996.7a69.765,69.765,0,1,1,0,139.53H482.766A69.765,69.765,0,1,1,482.766,1164.47Z"/>
</svg>
